# xmcd CD database file
#
# Track frame offsets:
#	182
#	15315
#	28267
#	42955
#	56282
#	69180
#	83792
#	97952
#	111987
#	125925
#	140432
#	153600
#	167742
#	182657
#	195600
#	206847
#	221162
#	237337
#	250042
#	263620
#	277047
#	293210
#
# Disc length: 4095 seconds
#
# Revision: 1
# Processed by: cddbd v1.5.2PL0 Copyright (c) Steve Scherf et al.
# Submitted via: CDex 1.77
#
DISCID=440ffd16
DTITLE=Frank Sinatra - Vol. 2
DYEAR=1992
DGENRE=Jazz
TTITLE0=Polka Dots And Moonbeams
TTITLE1=The Fable Of the Rose
TTITLE2=This Is The Beginning Of The End
TTITLE3=Hear My Song, Violetta
TTITLE4=Hear My Song, Violetta
TTITLE5=Fools Rush In
TTITLE6=Devil May Care
TTITLE7=April Played The Fiddle
TTITLE8=I Haven't Time To Be A Millionaire
TTITLE9=Imagination
TTITLE10=Yours Is My Heart Alone
TTITLE11=You're Lonely And I'm Lonely
TTITLE12=East of The Sun
TTITLE13=Head On My pillow
TTITLE14=It's A lovely Day Tomorrow
TTITLE15=I'll Never Smile Again
TTITLE16=All This And Heaven Too
TTITLE17=Where Do You Keep Your Heart
TTITLE18=Whispering
TTITLE19=Trade Winds
TTITLE20=The One I Love Belongs To Somebody Else
TTITLE21=The Call Of The Canyon
EXTD=YEAR: 1992
EXTT0=
EXTT1=
EXTT2=
EXTT3=
EXTT4=
EXTT5=
EXTT6=
EXTT7=
EXTT8=
EXTT9=
EXTT10=
EXTT11=
EXTT12=
EXTT13=
EXTT14=
EXTT15=
EXTT16=
EXTT17=
EXTT18=
EXTT19=
EXTT20=
EXTT21=
PLAYORDER=
